<?xml version="1.0" encoding="UTF-8"?>
<svg id="Layer_1" data-name="Layer 1" xmlns="http://www.w3.org/2000/svg" xmlns:xlink="http://www.w3.org/1999/xlink" viewBox="0 0 316.42 223.58">
  <defs>
    <style>
      .cls-1 {
        fill: url(#linear-gradient);
      }

      .cls-2 {
        fill: #fff;
      }

      .cls-3 {
        fill: #7360a9;
      }
    </style>
    <linearGradient id="linear-gradient" x1="159.16" y1="97.34" x2="159.16" y2="248.29" gradientUnits="userSpaceOnUse">
      <stop offset="0" stop-color="#6a4ea0"/>
      <stop offset="1" stop-color="#262262"/>
    </linearGradient>
  </defs>
  <rect class="cls-1" x="83.68" y="20.05" width="150.95" height="154.58" rx="23.17" ry="23.17"/>
  <g>
    <path class="cls-2" d="M197.68,46.42H118.42c-9.79,0-11.68,11.05-11.68,11.05v46.11s-.63,13.26,12,13.26h60v-14.53s16.74-5.05,16.74-18.63v-19.89h-8.84v-3.79h-6.32v12.63h6v-3.16h2.53v16.11s-.95,9-12,9c-11.68,0-13.58-9.95-13.58-9.95v-15.47h2.21v4.11h5.68v-13.26h-5.68v3.47h-8.53s-.32,13.26,0,20.21c1.58,13.89,16.11,17.68,16.11,17.68v9.16s-48.32,.63-54.32,0c-6-.63-5.37-5.05-5.37-5.05V58.11s.31-5.66,6-5.68c5.69-.02,72.32-.32,78.95,0,6.63,.32,5.68,7.26,5.68,7.26v62.53h-35.68l-16.54,15.93c-2.04-1.47-4.54-2.35-7.26-2.35-6.87,0-12.43,5.57-12.43,12.43s5.57,12.43,12.43,12.43,12.43-5.57,12.43-12.43c0-2.05-.5-3.97-1.38-5.67l15.27-14.65h39.47V56.84s.21-10.42-12.63-10.42Zm-53.17,110.02c-4.54,0-8.23-3.68-8.23-8.23s3.68-8.23,8.23-8.23,8.23,3.68,8.23,8.23-3.68,8.23-8.23,8.23Z"/>
    <ellipse class="cls-2" cx="127.7" cy="81.39" rx="4.39" ry="7.39"/>
    <ellipse class="cls-2" cx="144.52" cy="81.39" rx="4.39" ry="7.39"/>
    <circle class="cls-2" cx="144.52" cy="148.22" r="4.39"/>
  </g>
  <g>
    <path class="cls-3" d="M22.28,194.72h9.34v-9.6h6.47v24.88h-6.47v-10.26h-9.34v10.26h-6.47v-24.88h6.47v9.6Z"/>
    <path class="cls-3" d="M57.46,190.59h-7.69v4.16h7.26v5.48h-7.26v4.29h7.69v5.48h-14.15v-24.88h14.15v5.48Z"/>
    <path class="cls-3" d="M77.35,205.67h-9.24l-1.48,4.32h-6.9l9.47-24.88h7.06l9.47,24.88h-6.9l-1.48-4.32Zm-1.72-4.92l-2.9-8.28-2.9,8.28h5.81Z"/>
    <path class="cls-3" d="M95.04,185.12v19.4h7.75v5.48h-14.22v-24.88h6.47Z"/>
    <path class="cls-3" d="M114.24,190.59v19.4h-6.47v-19.4h-5.31v-5.48h17.09v5.48h-5.31Z"/>
    <path class="cls-3" d="M151.56,193.43c-1.5-1.83-3.34-2.74-5.54-2.74-.97,0-1.86,.18-2.69,.53-.82,.35-1.53,.83-2.13,1.44-.59,.61-1.06,1.33-1.4,2.16-.34,.84-.51,1.74-.51,2.71s.17,1.9,.51,2.74c.34,.84,.81,1.56,1.42,2.18s1.31,1.1,2.13,1.45c.81,.35,1.69,.53,2.64,.53,2.07,0,3.93-.88,5.58-2.64v7.65l-.66,.23c-.99,.35-1.91,.61-2.77,.78s-1.71,.25-2.54,.25c-1.72,0-3.36-.32-4.93-.97-1.57-.65-2.96-1.56-4.16-2.74-1.2-1.18-2.16-2.57-2.89-4.19-.73-1.62-1.09-3.38-1.09-5.3s.36-3.67,1.07-5.26c.71-1.59,1.67-2.97,2.87-4.12,1.2-1.15,2.59-2.06,4.17-2.71,1.58-.65,3.24-.97,4.98-.97,.99,0,1.96,.1,2.92,.31,.96,.21,1.96,.53,3.02,.97v7.72Z"/>
    <path class="cls-3" d="M154.89,197.55c0-1.85,.34-3.57,1.02-5.16,.68-1.59,1.63-2.99,2.84-4.17,1.21-1.19,2.66-2.12,4.34-2.79s3.54-1.01,5.56-1.01,3.85,.34,5.54,1.01,3.15,1.6,4.37,2.79c1.22,1.19,2.17,2.58,2.85,4.17,.68,1.59,1.02,3.32,1.02,5.16s-.34,3.57-1.02,5.16c-.68,1.6-1.63,2.99-2.85,4.17-1.22,1.19-2.68,2.12-4.37,2.79s-3.54,1.01-5.54,1.01-3.88-.34-5.56-1.01-3.13-1.6-4.34-2.79c-1.21-1.19-2.16-2.58-2.84-4.17-.68-1.59-1.02-3.32-1.02-5.16Zm6.76,0c0,.99,.19,1.9,.56,2.74,.37,.84,.88,1.56,1.52,2.18,.64,.62,1.38,1.09,2.23,1.44,.85,.34,1.74,.51,2.69,.51s1.84-.17,2.69-.51c.85-.34,1.59-.82,2.24-1.44,.65-.62,1.16-1.34,1.53-2.18,.37-.84,.56-1.75,.56-2.74s-.19-1.9-.56-2.74c-.37-.84-.89-1.56-1.53-2.18-.65-.62-1.4-1.09-2.24-1.44-.85-.34-1.74-.51-2.69-.51s-1.84,.17-2.69,.51c-.85,.34-1.59,.82-2.23,1.44-.64,.62-1.14,1.34-1.52,2.18-.37,.84-.56,1.75-.56,2.74Z"/>
    <path class="cls-3" d="M186.53,209.99v-24.88h6.47l11.94,15.21v-15.21h6.43v24.88h-6.43l-11.94-15.21v15.21h-6.47Z"/>
    <path class="cls-3" d="M216.59,209.99v-24.88h6.47l11.94,15.21v-15.21h6.43v24.88h-6.43l-11.94-15.21v15.21h-6.47Z"/>
    <path class="cls-3" d="M260.8,190.59h-7.69v4.16h7.26v5.48h-7.26v4.29h7.69v5.48h-14.16v-24.88h14.16v5.48Z"/>
    <path class="cls-3" d="M283.37,193.43c-1.5-1.83-3.34-2.74-5.54-2.74-.97,0-1.86,.18-2.69,.53-.83,.35-1.54,.83-2.13,1.44-.59,.61-1.06,1.33-1.4,2.16-.34,.84-.51,1.74-.51,2.71s.17,1.9,.51,2.74,.81,1.56,1.42,2.18c.6,.62,1.31,1.1,2.13,1.45,.81,.35,1.69,.53,2.64,.53,2.07,0,3.93-.88,5.58-2.64v7.65l-.66,.23c-.99,.35-1.91,.61-2.77,.78-.86,.17-1.7,.25-2.54,.25-1.72,0-3.36-.32-4.93-.97-1.57-.65-2.96-1.56-4.16-2.74-1.2-1.18-2.16-2.57-2.89-4.19-.73-1.62-1.09-3.38-1.09-5.3s.36-3.67,1.07-5.26c.71-1.59,1.67-2.97,2.87-4.12,1.2-1.15,2.59-2.06,4.17-2.71,1.58-.65,3.24-.97,4.98-.97,.99,0,1.96,.1,2.92,.31s1.96,.53,3.02,.97v7.72Z"/>
    <path class="cls-3" d="M296.9,190.59v19.4h-6.47v-19.4h-5.31v-5.48h17.09v5.48h-5.31Z"/>
  </g>
  <path class="cls-2" d="M197.68,46.42H118.42c-9.79,0-11.68,11.05-11.68,11.05v46.11s-.63,13.26,12,13.26h60v-14.53s16.74-5.05,16.74-18.63v-19.89h-8.84v-3.79h-6.32v12.63h6v-3.16h2.53v16.11s-.95,9-12,9c-11.68,0-13.58-9.95-13.58-9.95v-15.47h2.21v4.11h5.68v-13.26h-5.68v3.47h-8.53s-.32,13.26,0,20.21c1.58,13.89,16.11,17.68,16.11,17.68v9.16s-48.32,.63-54.32,0c-6-.63-5.37-5.05-5.37-5.05V58.11s.31-5.66,6-5.68c5.69-.02,72.32-.32,78.95,0,6.63,.32,5.68,7.26,5.68,7.26v62.53h-35.68l-16.54,15.93c-2.04-1.47-4.54-2.35-7.26-2.35-6.87,0-12.43,5.57-12.43,12.43s5.57,12.43,12.43,12.43,12.43-5.57,12.43-12.43c0-2.05-.5-3.97-1.38-5.67l15.27-14.65h39.47V56.84s.21-10.42-12.63-10.42Zm-53.17,110.02c-4.54,0-8.23-3.68-8.23-8.23s3.68-8.23,8.23-8.23,8.23,3.68,8.23,8.23-3.68,8.23-8.23,8.23Z"/>
  <ellipse class="cls-2" cx="127.7" cy="81.39" rx="4.39" ry="7.39"/>
  <ellipse class="cls-2" cx="144.52" cy="81.39" rx="4.39" ry="7.39"/>
  <circle class="cls-2" cx="144.52" cy="148.22" r="4.39"/>
</svg>