<?xml version="1.0" encoding="utf-8"?>
<!-- Generator: Adobe Illustrator 21.1.0, SVG Export Plug-In . SVG Version: 6.00 Build 0)  -->
<svg version="1.1" id="Layer_1" xmlns="http://www.w3.org/2000/svg" xmlns:xlink="http://www.w3.org/1999/xlink" x="0px" y="0px"
	 viewBox="0 0 441 449" style="enable-background:new 0 0 441 449;" xml:space="preserve">
<style type="text/css">
	.st0{fill:#EE3057;}
</style>
<g>
	<path d="M98.3,286.5c-6.1,0-11.4,0.1-16.7,0c-3.9,0-5.9-1.8-6.3-5.2c-0.5-3.9,2.2-6.7,6.4-6.7c8.7-0.1,17.3-0.1,26-0.2
		c1,0,2.3,0,3-0.6c6.4-5.5,12.7-11,18.8-16.8c1.2-1.1,2.2-4.2,1.5-5.1c-1.1-1.4-3.6-2.4-5.5-2.5c-16.8-0.2-33.6-0.1-50.4-0.1
		c-0.9,0-1.9,0-2.8,0c-4.1-0.2-6.5-2.5-6.4-6.1c0.1-3.6,2.6-5.8,6.7-5.8c35.9,0,71.9,0,107.8,0c11.6,0,23.2-0.1,34.8-0.1
		c1.7,0,3.4,0.1,5,0.4c6.5,1.4,9,6.4,5.9,12.2c-2.4,4.4-5.4,8.4-8.3,12.5c-5.1,7.4-10.2,14.7-13.2,23.3
		c-3.8,10.6,1.2,17.5,10.6,20.3c10.5,3.2,21.3,3.6,32.2,2c16-2.3,29-10.3,41.4-20.1c17.7-14,32.3-31,45.9-48.8
		c8.8-11.6,17.6-23.3,25.8-35.3c4.8-7,8.9-14.6,12.3-22.4c3-6.8,0.8-12.5-7.7-13.3c-4.2-0.4-8.5-0.2-12.8-0.4
		c-4.8-0.2-7.6-3.1-7.4-7.4c0.2-3.9,2.7-6.4,6.6-6.5c11.5-0.1,23-0.2,34.5,0c8.4,0.1,13.9,5.7,15,15c1.1,9.4-1.1,18.4-4.4,26.9
		c-4.7,12.2-9.8,24.3-15.6,36.1c-4.9,10.1-11,19.6-16.5,29.4c-0.3,0.6-0.6,1.3-1.1,2.4c2.2,0.4,4.1,0.9,6,1.1
		c11.9,1.1,21.1,6.4,27.4,16.7c0.6,1,1.2,2,1.6,3.1c2.2,5.5,1.6,7-3.5,10c-14.7,8.8-29.4,17.8-44.3,26.3c-3.3,1.9-7.5,2.8-11.3,2.8
		c-39.7,0.2-79.4,0.1-119.1,0.1c-41.8,0-83.5,0-125.3,0c-1.2,0-2.5-0.2-3.7-0.4c-6.2-0.9-7.4-5.8-6.2-10.2c2.1-8.3,6-15.7,10.9-22.7
		C96.5,289.5,97.1,288.4,98.3,286.5z"/>
	<path d="M234.3,232.2c-6.2,0-12.3,0.2-18.5,0c-10.5-0.4-19.7-3.8-25.1-13.6c-5.1-9.2-4.5-19.1,0.1-28c9.3-18.2,19.4-35.9,29.1-53.8
		c2.7-5,5.5-10.1,8.3-15c7.9-13.9,24.9-16.9,35.8-5.5c10.5,11,21.5,21.5,32.5,32.1c1.5,1.4,4,2.4,6,2.5c8.3,0.3,16.7,0,25.1,0.1
		c9.4,0.1,14.6,7.1,12.1,16c-1,3.5-3.4,5.8-6.8,6.1c-5.6,0.6-11.2,0.6-16.9,0.7c-6.1,0.1-12.1-0.3-18.2,0.1
		c-6.6,0.4-11.7-2.2-16.4-6.3c-5.4-4.6-10.8-9.1-16.4-13.5c-2.9-2.3-5.2-1.7-7,1.4c-6.3,11.5-12.5,23-18.9,34.5
		c-3.1,5.4-0.3,11.6,7.3,11.5c10.1-0.1,20.3-0.3,30.4,0.5c5,0.4,10.5,1.7,14.8,4.2c7.9,4.5,10.3,12.4,5.9,22.9
		c-4.2,10.1-10.3,19.4-16,28.8c-8,13.2-16.4,26.1-24.7,39.1c-5.8,9.2-18.2,10.6-25.8,2.8c-3.4-3.5-4.5-9.9-1.9-14.2
		c4.4-7.3,9.2-14.4,13.8-21.5c5.2-8,10.6-16,15.8-24c2.7-4.1,1-7.4-4.1-7.5C247.9,232.1,241.1,232.3,234.3,232.2
		C234.3,232.3,234.3,232.2,234.3,232.2z"/>
	<path d="M144.6,92.2c1.8-0.1,2.8-0.3,3.8-0.3c8.9,0,17.8,0,26.6,0c4.3,0,5.1,0.9,5.1,5.1c0,41.8,0,83.5,0,125.3
		c0,4.8-0.4,5.2-5.2,5.2c-20.9,0-41.8,0-62.6,0.1c-2.5,0-3.2-0.8-3.2-3.3c0.1-47.3,0-94.6,0-141.9c0-1.4,0.2-2.8,0.4-4.1
		c0.3-0.1,0.6-0.1,0.8-0.2c0.6,0.9,1.3,1.7,1.8,2.6c4.7,9.6,9.3,19.3,14,28.9c2.1,4.3,6.9,4.8,9.4,0.7c1.9-3,3.9-4,7.4-3.7
		c5,0.4,7.2-3.2,5-7.7C146.9,97,145.9,94.9,144.6,92.2z"/>
	<path d="M48.1,92.3c-1.4,2.6-2.4,4.6-3.4,6.6c-2.6,5.2-0.1,9,5.7,8.5c2.9-0.3,4.6,0.7,6.2,3c3.3,4.8,7.4,4.5,10-0.9
		c4.5-9.1,8.7-18.2,13.1-27.3c0.7-1.4,1.4-2.7,2.1-4c0.3,0,0.6,0.1,0.9,0.1c0.2,1.1,0.6,2.2,0.6,3.2c0,7.9,0,15.9,0,23.8
		c0,39.3,0,78.5,0,117.8c0,4.3,0,4.3-4.2,4.3c-20.4,0-40.7,0-61.1-0.1c-3.8,0-4.8-1-4.8-4.9c0-41.9,0-83.8,0-125.6
		c0-4.2,0.9-5.1,4.9-5.1c8.8,0,17.5,0,26.3,0C45.5,92,46.4,92.1,48.1,92.3z"/>
	<path d="M346.9,418.7c-1.2-1.3-2.2-2.3-3.1-3.3c-3.2-3.4-6.6-6.6-9.4-10.4c-3.3-4.5-3.8-9.7-1.2-14.8c2.5-4.8,6.9-6,11.9-6
		c25.3,0,50.5,0,75.8-0.1c2.6,0,3.6,0.9,3.5,3.5c-0.1,3.1-0.1,6.3,0,9.4c0.1,2.6-1,3.5-3.5,3.5c-7.2-0.1-14.4-0.1-21.6-0.1
		c-0.8,0-1.8-0.2-2.5,0.1c-0.9,0.4-1.6,1.3-2.4,2c0.8,0.7,1.6,2,2.5,2c4.1,0.2,8.1,0.1,12.2,0.1c4.4,0,4.7,0.3,4.6,4.6
		c0,0.8-0.1,1.7,0,2.5c0.2,2.3-0.9,3.3-3.1,3.2c-4.2,0-8.4,0-12.5,0.1c-1.6,0-3.7-0.4-3.7,2.2c0,2.5,1.6,3.1,3.8,3.1
		c9,0,18,0.1,26.9,0c2.9,0,4.3,0.8,4.1,3.9c-0.2,2.9-0.1,5.8,0,8.8c0.2,2.6-1,3.7-3.4,3.7c-1.4,0-2.7,0.1-4.1,0.1
		c-12.9,0-25.9,0-38.8,0c-1.5,0-2.9-0.1-4.4-0.1c-2.3-0.1-3.2-1.2-3.2-3.6c0.1-9.4,0.1-18.8,0-28.2c0-3.9-0.5-4.4-4.3-4.4
		c-3.7,0-7.3-0.1-11,0.1c-1,0-1.9,0.9-2.9,1.4c0.5,0.8,0.9,1.8,1.5,2.5c3.5,4,7.8,7.4,10.5,11.9c6.3,10.5,0.6,20.2-11.8,20.4
		c-9.7,0.1-19.4-0.5-29.1-0.5c-11.8,0-23.5,0.3-35.3,0.6c-4.2,0.1-7.3-1.1-10.1-4.3c-3.2-3.6-7-6.9-10.5-10.2
		c-0.4-0.4-1-0.6-2.3-1.5c0,4,0,7.4,0,10.8c0,4.6-0.3,5-4.9,5.1c-4.2,0.1-8.4,0-12.5,0c-2.7,0-3.9-1-3.9-3.9
		c0.1-14.8,0.1-29.7,0-44.5c0-2.8,0.8-4.2,4-4.2c11.1,0.1,22.1,0.1,33.2,0.1c5.1,0,9.8,1.5,13.6,4.8c9.1,7.8,6.2,21.4-5.4,25.5
		c-1.2,0.4-2.3,0.8-3.5,1.2c0.4,2.7,1.8,4.1,4.1,4.2c4.1,0.2,8.1,0.2,12.2,0.3c2.2,0,2.3-1.6,2.4-3.3c0-8.2,0.1-16.5,0.1-24.7
		c0-8-0.1-8,8-8c2.5,0,5,0.2,7.5,0c2.7-0.2,3.5,1.1,3.5,3.4c0,5.6,0.1,11.3,0.1,16.9c0,4.4-0.1,8.8,0,13.2c0,0.9,0.9,2.4,1.5,2.4
		c4.7,0.1,9.4,0,14.1-0.2C344.8,419.9,345.5,419.3,346.9,418.7z M278,406.6C278,406.6,278,406.6,278,406.6c1.8-0.1,3.5-0.1,5.3-0.1
		c2.4,0,3.8-1,3.8-3.5c0-2.4-0.7-4.5-3.5-4.7c-3.7-0.2-7.5-0.2-11.2-0.1c-0.7,0-1.9,1.2-2.1,2c-1,5.3,0,6.4,5.5,6.3
		C276.5,406.6,277.2,406.6,278,406.6z"/>
	<path d="M103.3,57.7c0,1.4,0,2.8,0,4.2c0,53.7,0,107.3,0,161c0,5,0,5-5,5c-9,0.1-8.9,0.1-8.9-9.1c0-48.7,0-97.3,0-146
		c0-5.2,0-10.4-0.7-15.8c-0.7,1.5-1.4,3.1-2.1,4.6C79.2,77,71.9,92.3,64.5,107.6c-2.1,4.3-3.5,4.5-6.2,0.5c-1.9-2.8-3.8-4.4-7.4-3.5
		c-1.2,0.3-3.5,0-3.9-0.8c-0.5-1.1-0.2-3.1,0.5-4.2c6-9.8,11.9-19.6,18.3-29.1c4-6,8.7-11.4,13-17.2c0.4-0.5,0.6-1.2,1.1-2.1
		c-3.7-0.6-7.2-1.2-10.7-1.8c-3-0.5-6-1-8.9-1.5c-8-1.4-10.9-5.5-8.5-13.3c1.2-3.9,3.4-7.6,5.9-10.8c3.5-4.5,7.2-5.3,12.2-2.6
		c4.6,2.5,8.7,5.9,13,9c1,0.7,1.8,1.6,3.1,2.9c-1.5-4.9-2.9-9.1-4-13.4c-0.5-2.2-0.6-4.6-0.4-6.8c0.3-3.4,2.2-5.9,5.6-6.8
		c6.3-1.6,12.6-1.8,18.8,0.1c5.3,1.6,7.4,5,6.2,10.5c-1.2,5.1-2.7,10-4.1,15.1c-0.2,0.8-0.4,1.7-0.7,2.9c4.3-3.7,8.1-7.3,12.2-10.3
		c2.6-1.9,5.8-3.3,8.9-4.4c3.3-1.1,6.4,0,8.8,2.5c3.8,4.1,6.4,8.7,6.9,14.3c0.6,6.4-1.6,9.5-8.2,10.6c-6.9,1.2-13.8,2.1-20.7,3.2
		c-0.7,0.1-1.4,0.3-2.8,0.6c1.8,2.4,3.3,4.6,4.9,6.6c10.3,13.1,19.8,26.8,27.5,41.6c1.6,3.1,0.8,4.6-2.7,4.2c-4-0.5-6.6,0.7-8.7,4.2
		c-2.1,3.5-3.8,3.2-5.6-0.5c-7.8-16.3-15.7-32.7-23.5-49c-0.1-0.3-0.4-0.5-0.6-0.7C103.8,57.7,103.6,57.7,103.3,57.7z"/>
	<path d="M151.4,421.6c0,3.7-0.1,7.4,0,11.1c0.1,2.9-1.2,3.9-3.9,3.9c-4.7-0.1-9.4-0.1-14.1-0.1c-2.2,0-3.1-1.1-3.1-3.3
		c0.1-15.2,0-30.5,0-45.7c0-2.3,0.8-3.4,3.3-3.3c11.5,0.1,23,0,34.4,0.1c4.9,0,9.1,1.9,12.9,5c5.2,4.2,5.6,9.9,4.4,15.7
		c-1.1,5.3-5.5,7.8-10.2,9.7c-1.2,0.5-2.2,1.4-3.3,2.2c1.5,1.1,2.8,3,4.5,3.3c3.4,0.5,6.9,0.2,10.3,0.2c2.2,0,3.5-0.7,3.5-3.2
		c0-8.7,0.1-17.3,0.1-26c0-1.5-0.3-3,0.1-4.3c0.3-1,1.6-2.4,2.5-2.4c12.3-0.1,24.7-0.6,36.9,0.2c12.2,0.8,19,11.1,15.9,23.2
		c-1.6,6.2-9.8,11.7-17.9,12c-4.3,0.2-8.6,0.2-12.8,0.1c-2.6-0.1-3.8,0.7-3.6,3.6c0.2,3.2-0.1,6.5,0,9.7c0,2.5-1,3.7-3.6,3.7
		c-12.1,0-24.2,0.1-36.3-0.1c-1.7,0-3.6-1.1-4.9-2.2c-3.9-3.4-7.6-7.1-11.4-10.7c-0.9-0.8-1.9-1.5-2.8-2.3
		C152.1,421.4,151.8,421.5,151.4,421.6z M219.4,406.7C219.4,406.7,219.4,406.6,219.4,406.7c1.6,0,3.1-0.1,4.7,0
		c2.6,0.1,4.3-0.8,4.4-3.6c0.1-3-1.2-4.6-4.1-4.7c-3.2-0.2-6.4,0-9.7-0.2c-2.5-0.1-3.2,1.1-3.2,3.4c-0.1,4.8,0.2,5.2,4.9,5.2
		C217.4,406.7,218.4,406.7,219.4,406.7z M159.2,406.6C159.2,406.6,159.2,406.6,159.2,406.6c1.8-0.1,3.5,0,5.3-0.1c2.4,0,4.1-1,4-3.7
		c-0.1-2.6-0.9-4.5-3.9-4.6c-2.9-0.1-5.8-0.1-8.7-0.1c-4.3,0-4.2,0.2-4.5,4.4c-0.2,3.2,1,4.4,4.1,4.1
		C156.7,406.5,158,406.6,159.2,406.6z"/>
	<path d="M64.4,384.2c7.3,0,14.6,0.1,21.9-0.1c2.9-0.1,3.9,1.1,3.8,3.9c-0.1,8.9,0,17.8,0,26.6c0,6.5,2.4,8.8,8.9,8.9
		c6.2,0.1,9.5-3,9.6-9c0.1-8.4,0-16.7,0-25.1c0-5.4,0.1-5.5,5.3-5.4c3.4,0.1,6.9,0.2,10.3,0.1c2.3-0.1,3.3,0.8,3.3,3.1
		c0,9.7,0.4,19.4-0.1,29.1c-0.6,10.8-6.5,17.4-17.8,20.1c-8,1.9-16.2,1.8-24.1-1.1c-10.6-3.9-14.7-9.7-14.8-20.9
		c0-3.5-0.2-7.1-0.1-10.6c0.1-2.6-1-3.3-3.3-3.3c-2.6,0.1-5.2-0.1-7.8,0.1c-1.1,0.1-2.2,0.8-3.3,1.2c0.6,1,1,2.1,1.8,3
		c3.3,3.7,7.3,7,9.9,11.1c6.5,10.7,0.7,20.6-11.9,20.8c-8.8,0.1-17.5,0-26.3,0c-5.7,0-11.5,0-17.2,0c-2.9,0-4.5-0.9-4.2-4.2
		c0.2-2.9,0.2-5.8,0-8.8c-0.1-2.6,1-3.5,3.5-3.5c9,0.1,18,0.1,26.9-0.1c2,0,3.9-0.8,5.9-1.3c-1.2-1.6-2.1-3.3-3.5-4.6
		c-4.2-3.9-8-7.9-9.9-13.4c-2.9-8.7,2.4-16.4,11.5-16.5C50,384.1,57.2,384.2,64.4,384.2C64.4,384.2,64.4,384.2,64.4,384.2z"/>
	<path d="M240.4,88.6c-0.1-17.1,8.6-30,22.8-35.5c16.2-6.3,37,3.6,41.7,20.1c0.7,2.5,0.8,5.2,0.7,7.7c0,4.8-2.3,6.2-6.7,4.4
		c-2.5-1-5-2-7.6-2.9c-4.1-1.4-7.2-0.2-9.1,3.7c-2.5,5.1-2.1,7.5,2,10.2c2.9,2,6,3.6,8.9,5.7c2.3,1.6,2.5,4,1.3,6.4
		c-0.7,1.4-1.4,2.8-2.3,4.1c-3.6,5-7.3,6.2-12.9,4.1c-11-4-21.8-8.1-32.9-11.8c-3.5-1.2-4.7-3.5-5.1-6.5
		C240.9,94.6,240.7,91,240.4,88.6z"/>
	<path d="M389.3,303.9c2.3,6.1,2.4,12.1,1.9,18c-2,23-19.4,42.6-42,47.1c-23.1,4.6-39-9.5-42.1-29.1c-0.4-2.7-0.4-5.4-0.6-8.1
		c-0.1-1.9,0.7-2.9,2.8-2.8c7.6,0.1,15.2,0,22.9,0.1c0.8,0,2.1,1.3,2.2,2.1c0.9,8.6,8.5,13.1,16.8,9.9c5.5-2.1,8.4-6.6,10.4-11.8
		c0.6-1.7,1.4-3.7,1.2-5.5c-0.3-3.4,1.6-5,4.2-6.5c6.6-3.9,13.1-8.1,19.7-12.1C387.4,304.7,388.2,304.4,389.3,303.9z"/>
	<path d="M114.9,329c3.8,0,7.5-0.1,11.3,0.1c0.8,0,2.3,1,2.3,1.6c0.1,5.2,2.5,8.9,7.2,10.6c5.2,1.9,10.2,0.7,14.1-3.4
		c1.9-2,3.3-4.5,5.1-6.7c0.8-1,2.2-2.2,3.3-2.2c7.7-0.2,15.5-0.1,23.2-0.1c3,0,2.9,1.5,2.2,3.6c-5.6,15.8-15.6,27.4-31.3,33.7
		c-11.5,4.6-23,4.9-34.1-1.2c-9-4.9-14.4-12.5-16.3-22.5c-0.7-3.5-0.8-7-1-10.5c-0.1-2.1,0.8-3.2,3.2-3.1
		C107.6,329.1,111.2,329,114.9,329C114.9,329,114.9,329,114.9,329z"/>
	<path d="M118.4,53.5c1.8-0.4,3.1-0.7,4.4-0.9c5.6-1.1,11.2-2.2,16.8-3.2c1.5-0.3,3.1-0.4,4.7-0.4c11.9,0,23.8,0,35.7,0
		c6.3,0,6.8,0.5,6.8,6.7c0,8.7,0,17.3,0,26c0,3.8-1,4.7-4.6,4.7c-12.9,0-25.9,0.1-38.8-0.1c-1.2,0-2.7-0.9-3.4-1.9
		c-6.8-9.3-13.5-18.7-20.2-28.1C119.3,55.6,119,54.8,118.4,53.5z"/>
	<path d="M32.1,49c6.2,0,12.3-0.2,18.5,0.1c3.2,0.1,6.3,1.2,9.5,1.7c3.8,0.6,7.6,1.1,11.4,1.8c0.9,0.2,2.1,0.7,2.5,1.4
		c0.3,0.5-0.4,1.7-1,2.4c-6.5,9.3-13.2,18.4-19.7,27.7c-1.2,1.7-2.4,2.4-4.6,2.4c-12.1-0.1-24.2-0.1-36.3-0.1
		c-4.7,0-5.4-0.8-5.4-5.5c0-9.1,0-18.2,0-27.2c0-3.5,0.9-4.5,4.7-4.6C18.5,49,25.3,49,32.1,49C32.1,49,32.1,49,32.1,49z"/>
</g>
</svg>
