<?xml version="1.0" encoding="utf-8"?>
<!-- Generator: Adobe Illustrator 21.1.0, SVG Export Plug-In . SVG Version: 6.00 Build 0)  -->
<svg version="1.1" id="Layer_1" xmlns="http://www.w3.org/2000/svg" xmlns:xlink="http://www.w3.org/1999/xlink" x="0px" y="0px"
	 viewBox="0 0 414.1 384.1" style="enable-background:new 0 0 414.1 384.1;" xml:space="preserve">
<style type="text/css">
	.st0{fill:#EE3057;}
</style>
<g>
	<path d="M96.3,287.5c-6.1,0-11.4,0.1-16.7,0c-3.9,0-5.9-1.8-6.3-5.2c-0.5-3.9,2.2-6.7,6.4-6.7c8.7-0.1,17.3-0.1,26-0.2
		c1,0,2.3,0,3-0.6c6.4-5.5,12.7-11,18.8-16.8c1.2-1.1,2.2-4.2,1.5-5.1c-1.1-1.4-3.6-2.4-5.5-2.5c-16.8-0.2-33.6-0.1-50.4-0.1
		c-0.9,0-1.9,0-2.8,0c-4.1-0.2-6.5-2.5-6.4-6.1c0.1-3.6,2.6-5.8,6.7-5.8c35.9,0,71.9,0,107.8,0c11.6,0,23.2-0.1,34.8-0.1
		c1.7,0,3.4,0.1,5,0.4c6.5,1.4,9,6.4,5.9,12.2c-2.4,4.4-5.4,8.4-8.3,12.5c-5.1,7.4-10.2,14.7-13.2,23.3
		c-3.8,10.6,1.2,17.5,10.6,20.3c10.5,3.2,21.3,3.6,32.2,2c16-2.3,29-10.3,41.4-20.1c17.7-14,32.3-31,45.9-48.8
		c8.8-11.6,17.6-23.3,25.8-35.3c4.8-7,8.9-14.6,12.3-22.4c3-6.8,0.8-12.5-7.7-13.3c-4.2-0.4-8.5-0.2-12.8-0.4
		c-4.8-0.2-7.6-3.1-7.4-7.4c0.2-3.9,2.7-6.4,6.6-6.5c11.5-0.1,23-0.2,34.5,0c8.4,0.1,13.9,5.7,15,15c1.1,9.4-1.1,18.4-4.4,26.9
		c-4.7,12.2-9.8,24.3-15.6,36.1c-4.9,10.1-11,19.6-16.5,29.4c-0.3,0.6-0.6,1.3-1.1,2.4c2.2,0.4,4.1,0.9,6,1.1
		c11.9,1.1,21.1,6.4,27.4,16.7c0.6,1,1.2,2,1.6,3.1c2.2,5.5,1.6,7-3.5,10c-14.7,8.8-29.4,17.8-44.3,26.3c-3.3,1.9-7.5,2.8-11.3,2.8
		c-39.7,0.2-79.4,0.1-119.1,0.1c-41.8,0-83.5,0-125.3,0c-1.2,0-2.5-0.2-3.7-0.4c-6.2-0.9-7.4-5.8-6.2-10.2c2.1-8.3,6-15.7,10.9-22.7
		C94.5,290.5,95.1,289.4,96.3,287.5z"/>
	<path d="M232.3,233.2c-6.2,0-12.3,0.2-18.5,0c-10.5-0.4-19.7-3.8-25.1-13.6c-5.1-9.2-4.5-19.1,0.1-28c9.3-18.2,19.4-35.9,29.1-53.8
		c2.7-5,5.5-10.1,8.3-15c7.9-13.9,24.9-16.9,35.8-5.5c10.5,11,21.5,21.5,32.5,32.1c1.5,1.4,4,2.4,6,2.5c8.3,0.3,16.7,0,25.1,0.1
		c9.4,0.1,14.6,7.1,12.1,16c-1,3.5-3.4,5.8-6.8,6.1c-5.6,0.6-11.2,0.6-16.9,0.7c-6.1,0.1-12.1-0.3-18.2,0.1
		c-6.6,0.4-11.7-2.2-16.4-6.3c-5.4-4.6-10.8-9.1-16.4-13.5c-2.9-2.3-5.2-1.7-7,1.4c-6.3,11.5-12.5,23-18.9,34.5
		c-3.1,5.4-0.3,11.6,7.3,11.5c10.1-0.1,20.3-0.3,30.4,0.5c5,0.4,10.5,1.7,14.8,4.2c7.9,4.5,10.3,12.4,5.9,22.9
		c-4.2,10.1-10.3,19.4-16,28.8c-8,13.2-16.4,26.1-24.7,39.1c-5.8,9.2-18.2,10.6-25.8,2.8c-3.4-3.5-4.5-9.9-1.9-14.2
		c4.4-7.3,9.2-14.4,13.8-21.5c5.2-8,10.6-16,15.8-24c2.7-4.1,1-7.4-4.1-7.5C245.9,233.1,239.1,233.3,232.3,233.2
		C232.3,233.3,232.3,233.2,232.3,233.2z"/>
	<path d="M142.6,93.2c1.8-0.1,2.8-0.3,3.8-0.3c8.9,0,17.8,0,26.6,0c4.3,0,5.1,0.9,5.1,5.1c0,41.8,0,83.5,0,125.3
		c0,4.8-0.4,5.2-5.2,5.2c-20.9,0-41.8,0-62.6,0.1c-2.5,0-3.2-0.8-3.2-3.3c0.1-47.3,0-94.6,0-141.9c0-1.4,0.2-2.8,0.4-4.1
		c0.3-0.1,0.6-0.1,0.8-0.2c0.6,0.9,1.3,1.7,1.8,2.6c4.7,9.6,9.3,19.3,14,28.9c2.1,4.3,6.9,4.8,9.4,0.7c1.9-3,3.9-4,7.4-3.7
		c5,0.4,7.2-3.2,5-7.7C144.9,98,143.9,95.9,142.6,93.2z"/>
	<path d="M46.1,93.3c-1.4,2.6-2.4,4.6-3.4,6.6c-2.6,5.2-0.1,9,5.7,8.5c2.9-0.3,4.6,0.7,6.2,3c3.3,4.8,7.4,4.5,10-0.9
		c4.5-9.1,8.7-18.2,13.1-27.3c0.7-1.4,1.4-2.7,2.1-4c0.3,0,0.6,0.1,0.9,0.1c0.2,1.1,0.6,2.2,0.6,3.2c0,7.9,0,15.9,0,23.8
		c0,39.3,0,78.5,0,117.8c0,4.3,0,4.3-4.2,4.3c-20.4,0-40.7,0-61.1-0.1c-3.8,0-4.8-1-4.8-4.9c0-41.9,0-83.8,0-125.6
		c0-4.2,0.9-5.1,4.9-5.1c8.8,0,17.5,0,26.3,0C43.5,93,44.4,93.1,46.1,93.3z"/>
	<path d="M101.3,58.7c0,1.4,0,2.8,0,4.2c0,53.7,0,107.3,0,161c0,5,0,5-5,5c-9,0.1-8.9,0.1-8.9-9.1c0-48.7,0-97.3,0-146
		c0-5.2,0-10.4-0.7-15.8c-0.7,1.5-1.4,3.1-2.1,4.6C77.2,78,69.9,93.3,62.5,108.6c-2.1,4.3-3.5,4.5-6.2,0.5c-1.9-2.8-3.8-4.4-7.4-3.5
		c-1.2,0.3-3.5,0-3.9-0.8c-0.5-1.1-0.2-3.1,0.5-4.2c6-9.8,11.9-19.6,18.3-29.1c4-6,8.7-11.4,13-17.2c0.4-0.5,0.6-1.2,1.1-2.1
		c-3.7-0.6-7.2-1.2-10.7-1.8c-3-0.5-6-1-8.9-1.5c-8-1.4-10.9-5.5-8.5-13.3c1.2-3.9,3.4-7.6,5.9-10.8c3.5-4.5,7.2-5.3,12.2-2.6
		c4.6,2.5,8.7,5.9,13,9c1,0.7,1.8,1.6,3.1,2.9c-1.5-4.9-2.9-9.1-4-13.4c-0.5-2.2-0.6-4.6-0.4-6.8c0.3-3.4,2.2-5.9,5.6-6.8
		c6.3-1.6,12.6-1.8,18.8,0.1c5.3,1.6,7.4,5,6.2,10.5c-1.2,5.1-2.7,10-4.1,15.1c-0.2,0.8-0.4,1.7-0.7,2.9c4.3-3.7,8.1-7.3,12.2-10.3
		c2.6-1.9,5.8-3.3,8.9-4.4c3.3-1.1,6.4,0,8.8,2.5c3.8,4.1,6.4,8.7,6.9,14.3c0.6,6.4-1.6,9.5-8.2,10.6c-6.9,1.2-13.8,2.1-20.7,3.2
		c-0.7,0.1-1.4,0.3-2.8,0.6c1.8,2.4,3.3,4.6,4.9,6.6c10.3,13.1,19.8,26.8,27.5,41.6c1.6,3.1,0.8,4.6-2.7,4.2c-4-0.5-6.6,0.7-8.7,4.2
		c-2.1,3.5-3.8,3.2-5.6-0.5c-7.8-16.3-15.7-32.7-23.5-49c-0.1-0.3-0.4-0.5-0.6-0.7C101.8,58.7,101.6,58.7,101.3,58.7z"/>
	<path d="M238.4,89.6c-0.1-17.1,8.6-30,22.8-35.5c16.2-6.3,37,3.6,41.7,20.1c0.7,2.5,0.8,5.2,0.7,7.7c0,4.8-2.3,6.2-6.7,4.4
		c-2.5-1-5-2-7.6-2.9c-4.1-1.4-7.2-0.2-9.1,3.7c-2.5,5.1-2.1,7.5,2,10.2c2.9,2,6,3.6,8.9,5.7c2.3,1.6,2.5,4,1.3,6.4
		c-0.7,1.4-1.4,2.8-2.3,4.1c-3.6,5-7.3,6.2-12.9,4.1c-11-4-21.8-8.1-32.9-11.8c-3.5-1.2-4.7-3.5-5.1-6.5
		C238.9,95.6,238.7,92,238.4,89.6z"/>
	<path d="M387.3,304.9c2.3,6.1,2.4,12.1,1.9,18c-2,23-19.4,42.6-42,47.1c-23.1,4.6-39-9.5-42.1-29.1c-0.4-2.7-0.4-5.4-0.6-8.1
		c-0.1-1.9,0.7-2.9,2.8-2.8c7.6,0.1,15.2,0,22.9,0.1c0.8,0,2.1,1.3,2.2,2.1c0.9,8.6,8.5,13.1,16.8,9.9c5.5-2.1,8.4-6.6,10.4-11.8
		c0.6-1.7,1.4-3.7,1.2-5.5c-0.3-3.4,1.6-5,4.2-6.5c6.6-3.9,13.1-8.1,19.7-12.1C385.4,305.7,386.2,305.4,387.3,304.9z"/>
	<path d="M112.9,330c3.8,0,7.5-0.1,11.3,0.1c0.8,0,2.3,1,2.3,1.6c0.1,5.2,2.5,8.9,7.2,10.6c5.2,1.9,10.2,0.7,14.1-3.4
		c1.9-2,3.3-4.5,5.1-6.7c0.8-1,2.2-2.2,3.3-2.2c7.7-0.2,15.5-0.1,23.2-0.1c3,0,2.9,1.5,2.2,3.6c-5.6,15.8-15.6,27.4-31.3,33.7
		c-11.5,4.6-23,4.9-34.1-1.2c-9-4.9-14.4-12.5-16.3-22.5c-0.7-3.5-0.8-7-1-10.5c-0.1-2.1,0.8-3.2,3.2-3.1
		C105.6,330.1,109.2,330,112.9,330C112.9,330,112.9,330,112.9,330z"/>
	<path d="M116.4,54.5c1.8-0.4,3.1-0.7,4.4-0.9c5.6-1.1,11.2-2.2,16.8-3.2c1.5-0.3,3.1-0.4,4.7-0.4c11.9,0,23.8,0,35.7,0
		c6.3,0,6.8,0.5,6.8,6.7c0,8.7,0,17.3,0,26c0,3.8-1,4.7-4.6,4.7c-12.9,0-25.9,0.1-38.8-0.1c-1.2,0-2.7-0.9-3.4-1.9
		c-6.8-9.3-13.5-18.7-20.2-28.1C117.3,56.6,117,55.8,116.4,54.5z"/>
	<path d="M30.1,50c6.2,0,12.3-0.2,18.5,0.1c3.2,0.1,6.3,1.2,9.5,1.7c3.8,0.6,7.6,1.1,11.4,1.8c0.9,0.2,2.1,0.7,2.5,1.4
		c0.3,0.5-0.4,1.7-1,2.4c-6.5,9.3-13.2,18.4-19.7,27.7c-1.2,1.7-2.4,2.4-4.6,2.4c-12.1-0.1-24.2-0.1-36.3-0.1
		c-4.7,0-5.4-0.8-5.4-5.5c0-9.1,0-18.2,0-27.2c0-3.5,0.9-4.5,4.7-4.6C16.5,50,23.3,50,30.1,50C30.1,50,30.1,50,30.1,50z"/>
</g>
</svg>
